<svg role="img" viewBox="0 0 24 24" xmlns="http://www.w3.org/2000/svg"><title>PostgreSQL</title><path d="M23.5594 14.7228a.5269.5269 0 0 0-.0563-.1191c-.139-.2632-.4768-.3418-1.0074-.2321-1.6533.3411-2.2935.1312-2.5199-.0376 1.0697-1.6585 1.8441-3.541 2.2655-5.5765.4212-2.0345.347-3.7848-.1538-4.5765-.425-.6722-2.2687-2.8431-4.5155-3.2059-1.1392-.1841-2.14.0487-2.8257.6577-.6889-.3318-1.9573-.7584-3.3116-.6004C9.8752.8579 8.7343 1.6909 8.0248 3.043c-.8509-.249-2.1126-.3363-3.2463.3728-1.192.7448-1.804 2.0853-1.806 3.9781-.0037 3.8418 1.3724 8.1834 3.4488 10.5221.6672.7516 1.4079 1.1648 2.1584 1.2094.2933.0175.5796-.0174.8527-.0934.0714.1047.1504.2036.2444.296.6117.6016 1.5318.732 2.5116.3626.1836-.0692.374-.1619.5571-.2757.6424.3777 1.5087.6263 2.378.3422.5765-.1882 1.0584-.563 1.4606-1.0965.3672.0385.7197.0298 1.0482-.0452a4.155 4.155 0 0 0 1.9507-.8424c.3106-.2467.5354-.498.7317-.8124.1376.0122.2836.0106.4278-.0069.725-.088 1.3496-.5765 1.4376-.6399l.0018-.0013a.5765.5765 0 0 0 .2295-.4737zM3.7594 7.3971c.0019-1.5743.4775-2.6376 1.3737-3.0703.576-.278 1.2677-.2477 1.9634.0156-.1031.3632-.1835.7371-.2407 1.1193-.1545 1.0325-.0769 2.1271.2291 3.2444-.0155.3093-.0299.6182-.0324.9275l-.0006.0746c-.0043.1017-.0058.2055-.005.3094a12.2 12.2 0 0 0-.0488.5338c-.043.6897-.005 1.3798.113 2.0685a10.8 10.8 0 0 0-.1794-.5765c-1.261-3.6407-2.169-4.5797-3.1729-4.2711zm4.1584 9.4175c-.2497.0583-.5765-.1546-1.014-.6581C5.014 14.0898 3.768 10.09 3.7714 6.5027a8.5 8.5 0 0 1 .0185-.47c.5482-.0313 1.2814.0928 2.3173 3.0822.6017 1.7361.8088 3.337.8804 4.0283l.0009.0091c.0055.0526.0108.1034.0164.1552l.0039.0374a10.1 10.1 0 0 1 .0456 1.065c-.0002.1685-.0089.3369-.0256.501a2.6 2.6 0 0 1-.0698.4972 2.1 2.1 0 0 1-.2412.218zm6.0554 1.2412c-.0008 0-.0008 0 0 0-.6648.2167-1.2155-.0027-1.5647-.3424-.1071-.1042-.1804-.2124-.2337-.3012.0752-.1456.1502-.299.2161-.4655.2354-.5941.391-1.2074.4644-1.7901a7.3 7.3 0 0 0-.3916-3.4497 6.06 6.06 0 0 0-.142-.2988c-.1004-.1977-.125-.2461-.125-.3523 0-.39.168-.615.4783-.9555.1556-.1708.33-.3514.5133-.5615.0553-.0635.1521-.1861.2615-.3262.1094-.14.2364-.3023.3683-.4626.3402-.4134.6434-.7058.9068-.8759l.0123-.008c.1635-.0987.3168-.157.4589-.1809.6263.1052 1.1593.8485 1.486 1.3511.1168.1795.2264.3675.324.564.0706.1424.1362.2891.1985.4396-.2316.3073-.6158.8845-.855 1.3776l-.0039.0081-.0028.0059c-.2356.499-.43 1.026-.577 1.5735-.2617.975-.7556 3.4753-1.3057 4.2216zm5.545-3.1675a3.6 3.6 0 0 1-1.4683.5893c-.2558.0364-.4917.0212-.6946-.0408v-.0027a1.6 1.6 0 0 0-.0589-.3607c.2813-.1118.562-.245.8168-.4287a3.08 3.08 0 0 0 .968-1.0997c.0569-.1326.1009-.2691.1316-.4085a1.43 1.43 0 0 0 .0295-.3157 1.07 1.07 0 0 0-.0127-.1627c.028-.0032.0558-.007.0834-.0114l.1923-.0326c.3365-.0626.5946-.0839.7806-.0533.0037.0102.0072.0203.0107.0312.0972.3002-.118 1.048-.7804 2.2962z" fill="currentColor"/></svg>