<svg role="img" viewBox="0 0 24 24" xmlns="http://www.w3.org/2000/svg"><title>Twilio</title><path d="M12 0C5.381 0 0 5.381 0 12s5.381 12 12 12 12-5.381 12-12S18.619 0 12 0zm0 20.25c-4.556 0-8.25-3.694-8.25-8.25S7.444 3.75 12 3.75s8.25 3.694 8.25 8.25-3.694 8.25-8.25 8.25zm4.078-11.078a2.25 2.25 0 1 1-3.182 0 2.25 2.25 0 0 1 3.182 0zm0 4.656a2.25 2.25 0 1 1-3.182 0 2.25 2.25 0 0 1 3.182 0zm-4.656 0a2.25 2.25 0 1 1-3.182 0 2.25 2.25 0 0 1 3.182 0zm0-4.656a2.25 2.25 0 1 1-3.182 0 2.25 2.25 0 0 1 3.182 0z" fill="currentColor"/></svg>